<mxfile host="app.diagrams.net" agent="Mozilla/5.0 (Macintosh; Intel Mac OS X 10_15_7) AppleWebKit/537.36 (KHTML, like Gecko) Chrome/138.0.0.0 Safari/537.36" version="27.2.0">
  <diagram name="Page-1" id="8psTu5joOEkHxSPbt8DS">
    <mxGraphModel dx="1720" dy="2234" grid="1" gridSize="10" guides="1" tooltips="1" connect="1" arrows="1" fold="1" page="1" pageScale="1" pageWidth="827" pageHeight="1169" math="0" shadow="0">
      <root>
        <mxCell id="0" />
        <mxCell id="1" parent="0" />
        <mxCell id="2n8DTs9FGm6G3Dhhkiev-2" value="&lt;font style=&quot;font-size: 18px;&quot;&gt;Motion Detector&lt;/font&gt;" style="whiteSpace=wrap;html=1;" parent="1" vertex="1">
          <mxGeometry x="1900" y="-290" width="91" height="580" as="geometry" />
        </mxCell>
        <mxCell id="2n8DTs9FGm6G3Dhhkiev-24" value="" style="swimlane;startSize=0;" parent="1" vertex="1">
          <mxGeometry x="1030" y="-260" width="720" height="560" as="geometry" />
        </mxCell>
        <mxCell id="2n8DTs9FGm6G3Dhhkiev-47" value="&lt;font style=&quot;font-size: 36px;&quot; face=&quot;Times New Roman&quot;&gt;Frame Manager&lt;/font&gt;" style="text;html=1;align=center;verticalAlign=middle;resizable=0;points=[];autosize=1;strokeColor=none;fillColor=none;" parent="2n8DTs9FGm6G3Dhhkiev-24" vertex="1">
          <mxGeometry x="5" y="10" width="250" height="60" as="geometry" />
        </mxCell>
        <mxCell id="2n8DTs9FGm6G3Dhhkiev-23" value="[7:0]background_next" style="text;html=1;align=center;verticalAlign=middle;whiteSpace=wrap;rounded=0;" parent="1" vertex="1">
          <mxGeometry x="1510" y="-185.24" width="60" height="30" as="geometry" />
        </mxCell>
        <mxCell id="2n8DTs9FGm6G3Dhhkiev-17" value="[7:0]background" style="text;html=1;align=center;verticalAlign=middle;whiteSpace=wrap;rounded=0;" parent="1" vertex="1">
          <mxGeometry x="1519.5" y="-155.23999999999998" width="60" height="30" as="geometry" />
        </mxCell>
        <mxCell id="2n8DTs9FGm6G3Dhhkiev-1" value="&lt;span style=&quot;background-color: transparent; color: light-dark(rgb(0, 0, 0), rgb(255, 255, 255)); font-size: 18px;&quot;&gt;Variation&lt;/span&gt;&lt;div&gt;&lt;span style=&quot;font-size: medium; background-color: transparent; color: light-dark(rgb(0, 0, 0), rgb(255, 255, 255));&quot;&gt;&amp;nbsp;Buffer&lt;/span&gt;&lt;/div&gt;" style="rounded=0;whiteSpace=wrap;html=1;" parent="1" vertex="1">
          <mxGeometry x="1620" y="-70.44999999999999" width="100" height="72.42" as="geometry" />
        </mxCell>
        <mxCell id="2n8DTs9FGm6G3Dhhkiev-12" value="" style="edgeStyle=orthogonalEdgeStyle;rounded=0;orthogonalLoop=1;jettySize=auto;html=1;strokeWidth=3;" parent="1" edge="1">
          <mxGeometry relative="1" as="geometry">
            <mxPoint x="1620" y="-158.24" as="targetPoint" />
            <mxPoint x="1481.5" y="-158.24" as="sourcePoint" />
          </mxGeometry>
        </mxCell>
        <mxCell id="2n8DTs9FGm6G3Dhhkiev-16" value="" style="edgeStyle=orthogonalEdgeStyle;rounded=0;orthogonalLoop=1;jettySize=auto;html=1;strokeWidth=3;" parent="1" edge="1">
          <mxGeometry relative="1" as="geometry">
            <mxPoint x="1481" y="-127.40000000000009" as="targetPoint" />
            <mxPoint x="1620" y="-127.24000000000001" as="sourcePoint" />
          </mxGeometry>
        </mxCell>
        <mxCell id="2n8DTs9FGm6G3Dhhkiev-18" value="[7:0]variance_next" style="text;html=1;align=center;verticalAlign=middle;whiteSpace=wrap;rounded=0;" parent="1" vertex="1">
          <mxGeometry x="1519.5" y="-48.24000000000004" width="60" height="30" as="geometry" />
        </mxCell>
        <mxCell id="2n8DTs9FGm6G3Dhhkiev-19" value="[7:0]variance" style="text;html=1;align=center;verticalAlign=middle;whiteSpace=wrap;rounded=0;" parent="1" vertex="1">
          <mxGeometry x="1521" y="-79.04000000000002" width="60" height="30" as="geometry" />
        </mxCell>
        <mxCell id="2n8DTs9FGm6G3Dhhkiev-22" value="&lt;span style=&quot;font-size: 18px;&quot;&gt;Sigma-Delta&lt;/span&gt;&lt;div&gt;&lt;span style=&quot;font-size: 18px;&quot;&gt;Update&lt;/span&gt;&lt;/div&gt;" style="rounded=0;whiteSpace=wrap;html=1;" parent="1" vertex="1">
          <mxGeometry x="1260" y="-198.24" width="220" height="200" as="geometry" />
        </mxCell>
        <mxCell id="2n8DTs9FGm6G3Dhhkiev-27" value="" style="edgeStyle=orthogonalEdgeStyle;rounded=0;orthogonalLoop=1;jettySize=auto;html=1;strokeWidth=3;" parent="1" edge="1">
          <mxGeometry relative="1" as="geometry">
            <mxPoint x="1618.5" y="-19.450000000000017" as="targetPoint" />
            <mxPoint x="1480" y="-19.450000000000017" as="sourcePoint" />
          </mxGeometry>
        </mxCell>
        <mxCell id="2n8DTs9FGm6G3Dhhkiev-28" value="" style="edgeStyle=orthogonalEdgeStyle;rounded=0;orthogonalLoop=1;jettySize=auto;html=1;strokeWidth=3;" parent="1" edge="1">
          <mxGeometry relative="1" as="geometry">
            <mxPoint x="1481" y="-49.040000000000134" as="targetPoint" />
            <mxPoint x="1620" y="-48.88000000000005" as="sourcePoint" />
          </mxGeometry>
        </mxCell>
        <mxCell id="2n8DTs9FGm6G3Dhhkiev-31" value="&lt;span style=&quot;font-size: 18px;&quot;&gt;Background&lt;/span&gt;&lt;br&gt;&lt;div&gt;&lt;font size=&quot;3&quot;&gt;&amp;nbsp;Buffer&lt;/font&gt;&lt;/div&gt;" style="rounded=0;whiteSpace=wrap;html=1;" parent="1" vertex="1">
          <mxGeometry x="1620" y="-176.45000000000002" width="100" height="72.42" as="geometry" />
        </mxCell>
        <mxCell id="2n8DTs9FGm6G3Dhhkiev-33" value="" style="edgeStyle=orthogonalEdgeStyle;rounded=0;orthogonalLoop=1;jettySize=auto;html=1;strokeWidth=3;exitX=0.25;exitY=1;exitDx=0;exitDy=0;" parent="1" edge="1">
          <mxGeometry relative="1" as="geometry">
            <mxPoint x="1900" y="62" as="targetPoint" />
            <mxPoint x="1600" y="-18.24000000000001" as="sourcePoint" />
            <Array as="points">
              <mxPoint x="1600.5" y="61.75999999999999" />
              <mxPoint x="1754.5" y="61.75999999999999" />
            </Array>
          </mxGeometry>
        </mxCell>
        <mxCell id="2n8DTs9FGm6G3Dhhkiev-34" value="" style="edgeStyle=orthogonalEdgeStyle;rounded=0;orthogonalLoop=1;jettySize=auto;html=1;strokeWidth=3;exitX=0.411;exitY=-0.108;exitDx=0;exitDy=0;exitPerimeter=0;" parent="1" edge="1">
          <mxGeometry relative="1" as="geometry">
            <mxPoint x="1900" y="-250" as="targetPoint" />
            <mxPoint x="1600.1600000000003" y="-158.23999999999978" as="sourcePoint" />
            <Array as="points">
              <mxPoint x="1600" y="-250" />
            </Array>
          </mxGeometry>
        </mxCell>
        <mxCell id="2n8DTs9FGm6G3Dhhkiev-35" value="&lt;font face=&quot;Times New Roman&quot; style=&quot;font-size: 18px;&quot;&gt;[7:0]variance_next&lt;/font&gt;" style="text;html=1;align=center;verticalAlign=middle;whiteSpace=wrap;rounded=0;" parent="1" vertex="1">
          <mxGeometry x="1800" y="34" width="60" height="30" as="geometry" />
        </mxCell>
        <mxCell id="2n8DTs9FGm6G3Dhhkiev-36" value="&lt;font face=&quot;Times New Roman&quot; style=&quot;font-size: 18px;&quot;&gt;[7:0]background_next&lt;/font&gt;" style="text;html=1;align=center;verticalAlign=middle;whiteSpace=wrap;rounded=0;" parent="1" vertex="1">
          <mxGeometry x="1790" y="-280" width="60" height="30" as="geometry" />
        </mxCell>
        <mxCell id="2n8DTs9FGm6G3Dhhkiev-37" value="&lt;span style=&quot;font-size: 18px;&quot;&gt;Grayscale&lt;/span&gt;&lt;div&gt;&lt;span style=&quot;font-size: 18px;&quot;&gt;Converter&lt;/span&gt;&lt;/div&gt;" style="rounded=0;whiteSpace=wrap;html=1;" parent="1" vertex="1">
          <mxGeometry x="1050" y="70" width="220" height="200" as="geometry" />
        </mxCell>
        <mxCell id="2n8DTs9FGm6G3Dhhkiev-38" value="" style="edgeStyle=orthogonalEdgeStyle;rounded=0;orthogonalLoop=1;jettySize=auto;html=1;strokeWidth=3;entryX=0;entryY=0.5;entryDx=0;entryDy=0;" parent="1" target="2n8DTs9FGm6G3Dhhkiev-37" edge="1">
          <mxGeometry relative="1" as="geometry">
            <mxPoint x="952" y="169" as="targetPoint" />
            <mxPoint x="800" y="170" as="sourcePoint" />
          </mxGeometry>
        </mxCell>
        <mxCell id="2n8DTs9FGm6G3Dhhkiev-39" value="" style="edgeStyle=orthogonalEdgeStyle;rounded=0;orthogonalLoop=1;jettySize=auto;html=1;strokeWidth=3;" parent="1" edge="1">
          <mxGeometry relative="1" as="geometry">
            <mxPoint x="1900" y="170" as="targetPoint" />
            <mxPoint x="1270" y="170" as="sourcePoint" />
          </mxGeometry>
        </mxCell>
        <mxCell id="2n8DTs9FGm6G3Dhhkiev-40" value="" style="edgeStyle=orthogonalEdgeStyle;rounded=0;orthogonalLoop=1;jettySize=auto;html=1;strokeWidth=3;" parent="1" edge="1">
          <mxGeometry relative="1" as="geometry">
            <mxPoint x="1370" as="targetPoint" />
            <mxPoint x="1370" y="170" as="sourcePoint" />
          </mxGeometry>
        </mxCell>
        <mxCell id="2n8DTs9FGm6G3Dhhkiev-42" value="&lt;font face=&quot;Times New Roman&quot; style=&quot;font-size: 18px;&quot;&gt;[7:0]curr_pixel&lt;/font&gt;" style="text;html=1;align=center;verticalAlign=middle;whiteSpace=wrap;rounded=0;" parent="1" vertex="1">
          <mxGeometry x="1800" y="140" width="60" height="30" as="geometry" />
        </mxCell>
        <mxCell id="2n8DTs9FGm6G3Dhhkiev-44" value="" style="edgeStyle=orthogonalEdgeStyle;rounded=0;orthogonalLoop=1;jettySize=auto;html=1;strokeWidth=3;" parent="1" edge="1">
          <mxGeometry relative="1" as="geometry">
            <mxPoint x="1370" y="220" as="targetPoint" />
            <mxPoint x="1370" y="170" as="sourcePoint" />
          </mxGeometry>
        </mxCell>
        <mxCell id="2n8DTs9FGm6G3Dhhkiev-43" value="&lt;span style=&quot;font-size: 18px;&quot;&gt;Frame&lt;/span&gt;&lt;br&gt;&lt;div&gt;&lt;span style=&quot;font-size: medium; background-color: transparent; color: light-dark(rgb(0, 0, 0), rgb(255, 255, 255));&quot;&gt;&amp;nbsp;Buffer&lt;/span&gt;&lt;/div&gt;" style="rounded=0;whiteSpace=wrap;html=1;" parent="1" vertex="1">
          <mxGeometry x="1322" y="220" width="100" height="72.42" as="geometry" />
        </mxCell>
        <mxCell id="2n8DTs9FGm6G3Dhhkiev-45" value="" style="edgeStyle=orthogonalEdgeStyle;rounded=0;orthogonalLoop=1;jettySize=auto;html=1;strokeWidth=3;entryX=-0.049;entryY=0.948;entryDx=0;entryDy=0;entryPerimeter=0;" parent="1" target="2n8DTs9FGm6G3Dhhkiev-2" edge="1">
          <mxGeometry relative="1" as="geometry">
            <mxPoint x="2052" y="260" as="targetPoint" />
            <mxPoint x="1422" y="260" as="sourcePoint" />
          </mxGeometry>
        </mxCell>
        <mxCell id="2n8DTs9FGm6G3Dhhkiev-46" value="&lt;font face=&quot;Times New Roman&quot; style=&quot;font-size: 18px;&quot;&gt;[7:0]prev_pixel&lt;/font&gt;" style="text;html=1;align=center;verticalAlign=middle;whiteSpace=wrap;rounded=0;" parent="1" vertex="1">
          <mxGeometry x="1800" y="230" width="60" height="30" as="geometry" />
        </mxCell>
        <mxCell id="2n8DTs9FGm6G3Dhhkiev-48" value="" style="edgeStyle=orthogonalEdgeStyle;rounded=0;orthogonalLoop=1;jettySize=auto;html=1;strokeWidth=3;" parent="1" edge="1">
          <mxGeometry relative="1" as="geometry">
            <mxPoint x="2230" y="2" as="targetPoint" />
            <mxPoint x="1991" y="1.9699999999999989" as="sourcePoint" />
          </mxGeometry>
        </mxCell>
        <mxCell id="2n8DTs9FGm6G3Dhhkiev-49" value="&lt;font face=&quot;Times New Roman&quot; style=&quot;font-size: 24px;&quot;&gt;motion_detected&lt;/font&gt;" style="text;html=1;align=center;verticalAlign=middle;whiteSpace=wrap;rounded=0;" parent="1" vertex="1">
          <mxGeometry x="2120" y="-28.03" width="60" height="30" as="geometry" />
        </mxCell>
        <mxCell id="2n8DTs9FGm6G3Dhhkiev-56" value="" style="swimlane;startSize=0;" parent="1" vertex="1">
          <mxGeometry x="970" y="-340" width="1090" height="710" as="geometry" />
        </mxCell>
        <mxCell id="2n8DTs9FGm6G3Dhhkiev-63" value="" style="edgeStyle=orthogonalEdgeStyle;rounded=0;orthogonalLoop=1;jettySize=auto;html=1;strokeWidth=3;" parent="2n8DTs9FGm6G3Dhhkiev-56" edge="1">
          <mxGeometry relative="1" as="geometry">
            <mxPoint x="974.97" y="630" as="targetPoint" />
            <mxPoint x="974.97" y="790" as="sourcePoint" />
          </mxGeometry>
        </mxCell>
        <mxCell id="2n8DTs9FGm6G3Dhhkiev-66" value="&lt;font style=&quot;font-size: 36px;&quot; face=&quot;Times New Roman&quot;&gt;Motion Map Generator&lt;/font&gt;" style="text;html=1;align=center;verticalAlign=middle;resizable=0;points=[];autosize=1;strokeColor=none;fillColor=none;" parent="2n8DTs9FGm6G3Dhhkiev-56" vertex="1">
          <mxGeometry y="10" width="360" height="60" as="geometry" />
        </mxCell>
        <mxCell id="2n8DTs9FGm6G3Dhhkiev-52" value="&lt;font face=&quot;Times New Roman&quot; style=&quot;font-size: 24px;&quot;&gt;wr_background&lt;/font&gt;" style="text;html=1;align=center;verticalAlign=middle;resizable=0;points=[];autosize=1;strokeColor=none;fillColor=none;" parent="1" vertex="1">
          <mxGeometry x="805" y="-145" width="170" height="40" as="geometry" />
        </mxCell>
        <mxCell id="2n8DTs9FGm6G3Dhhkiev-57" value="" style="edgeStyle=orthogonalEdgeStyle;rounded=0;orthogonalLoop=1;jettySize=auto;html=1;strokeWidth=3;entryX=0;entryY=0.5;entryDx=0;entryDy=0;" parent="1" edge="1">
          <mxGeometry relative="1" as="geometry">
            <mxPoint x="970" y="80" as="targetPoint" />
            <mxPoint x="800" y="80" as="sourcePoint" />
          </mxGeometry>
        </mxCell>
        <mxCell id="2n8DTs9FGm6G3Dhhkiev-58" value="" style="edgeStyle=orthogonalEdgeStyle;rounded=0;orthogonalLoop=1;jettySize=auto;html=1;strokeWidth=3;entryX=0;entryY=0.5;entryDx=0;entryDy=0;" parent="1" edge="1">
          <mxGeometry relative="1" as="geometry">
            <mxPoint x="970" y="1.9699999999999989" as="targetPoint" />
            <mxPoint x="800" y="1.9699999999999989" as="sourcePoint" />
          </mxGeometry>
        </mxCell>
        <mxCell id="2n8DTs9FGm6G3Dhhkiev-59" value="&lt;font face=&quot;Times New Roman&quot; style=&quot;font-size: 24px;&quot;&gt;[31:0] pixel&lt;/font&gt;" style="text;html=1;align=center;verticalAlign=middle;resizable=0;points=[];autosize=1;strokeColor=none;fillColor=none;" parent="1" vertex="1">
          <mxGeometry x="820" y="135" width="140" height="40" as="geometry" />
        </mxCell>
        <mxCell id="2n8DTs9FGm6G3Dhhkiev-60" value="&lt;font face=&quot;Times New Roman&quot; style=&quot;font-size: 24px;&quot;&gt;enable&lt;/font&gt;" style="text;html=1;align=center;verticalAlign=middle;resizable=0;points=[];autosize=1;strokeColor=none;fillColor=none;" parent="1" vertex="1">
          <mxGeometry x="845" y="45" width="90" height="40" as="geometry" />
        </mxCell>
        <mxCell id="2n8DTs9FGm6G3Dhhkiev-61" value="&lt;font face=&quot;Times New Roman&quot; style=&quot;font-size: 24px;&quot;&gt;last_in_frame&lt;/font&gt;" style="text;html=1;align=center;verticalAlign=middle;resizable=0;points=[];autosize=1;strokeColor=none;fillColor=none;" parent="1" vertex="1">
          <mxGeometry x="800" y="-35" width="160" height="40" as="geometry" />
        </mxCell>
        <mxCell id="2n8DTs9FGm6G3Dhhkiev-62" value="" style="edgeStyle=orthogonalEdgeStyle;rounded=0;orthogonalLoop=1;jettySize=auto;html=1;strokeWidth=3;entryX=-0.009;entryY=0.444;entryDx=0;entryDy=0;entryPerimeter=0;" parent="1" target="2n8DTs9FGm6G3Dhhkiev-22" edge="1">
          <mxGeometry relative="1" as="geometry">
            <mxPoint x="1070" y="-110" as="targetPoint" />
            <mxPoint x="810" y="-109" as="sourcePoint" />
          </mxGeometry>
        </mxCell>
        <mxCell id="2n8DTs9FGm6G3Dhhkiev-65" value="&lt;font face=&quot;Times New Roman&quot; style=&quot;font-size: 24px;&quot;&gt;[7:0]threshold&lt;/font&gt;" style="text;html=1;align=center;verticalAlign=middle;resizable=0;points=[];autosize=1;strokeColor=none;fillColor=none;" parent="1" vertex="1">
          <mxGeometry x="1940" y="380" width="160" height="40" as="geometry" />
        </mxCell>
      </root>
    </mxGraphModel>
  </diagram>
</mxfile>
